<?xml version="1.0" encoding="utf-8"?>
<!-- Generator: Adobe Illustrator 21.1.0, SVG Export Plug-In . SVG Version: 6.00 Build 0)  -->
<svg version="1.1" id="Calque_1" xmlns="http://www.w3.org/2000/svg" xmlns:xlink="http://www.w3.org/1999/xlink" x="0px" y="0px"
	 viewBox="0 0 100 125" style="enable-background:new 0 0 100 125;" xml:space="preserve">
<style type="text/css">
	.st0{fill:none;}
</style>
<g>
	<path class="st0" d="M58.7,59.7c-0.7-6.4-4-12.1-8.7-15.9c-4.8,3.8-8.1,9.5-8.7,15.9c2.7,1.1,5.7,1.7,8.7,1.7S56,60.8,58.7,59.7z"
		/>
	<path class="st0" d="M73.5,40.3c-2.7-1.1-5.7-1.7-8.7-1.7c-4.8,0-9.4,1.5-13.1,4c4.8,4,8.1,9.8,9,16.3
		C67.6,55.3,72.7,48.4,73.5,40.3z"/>
	<path class="st0" d="M35.2,38.6c-3.1,0-6,0.6-8.7,1.7c0.9,8.1,5.9,15,12.9,18.6c0.9-6.5,4.2-12.3,9-16.3
		C44.6,40.1,40.1,38.6,35.2,38.6z"/>
	<path class="st0" d="M35.2,36.6c5.5,0,10.6,1.7,14.8,4.7c4.2-3,9.3-4.7,14.8-4.7c3.1,0,6.1,0.6,8.9,1.6c0-0.1,0-0.3,0-0.4
		c0-13-10.6-23.7-23.7-23.7S26.3,24.7,26.3,37.7c0,0.1,0,0.3,0,0.4C29.1,37.2,32.1,36.6,35.2,36.6z"/>
	<path class="st0" d="M39.1,62.3c0-0.4,0-0.9,0-1.3c-7.8-3.6-13.4-11-14.6-19.8c-7.7,3.9-13,11.9-13,21.1c0,13,10.6,23.7,23.7,23.7
		c4.8,0,9.4-1.5,13.1-4C42.7,77.2,39.1,70.2,39.1,62.3z"/>
	<path class="st0" d="M75.4,41.1c-1.2,8.8-6.8,16.2-14.6,19.8c0,0.4,0,0.8,0,1.3c0,7.9-3.6,15-9.2,19.7c3.8,2.5,8.3,4,13.1,4
		c13,0,23.7-10.6,23.7-23.7C88.4,53,83.1,45,75.4,41.1z"/>
	<path class="st0" d="M58.9,62.3c0-0.1,0-0.3,0-0.4c-2.8,1-5.8,1.6-8.9,1.6s-6.1-0.6-8.9-1.6c0,0.1,0,0.3,0,0.4
		c0,7.5,3.5,14.1,8.9,18.5C55.4,76.4,58.9,69.7,58.9,62.3z"/>
	<path d="M75.6,39c0-0.4,0-0.8,0-1.3C75.6,23.5,64.1,12,49.9,12S24.3,23.6,24.3,37.7c0,0.4,0,0.9,0,1.3C15.6,43.1,9.6,52,9.6,62.3
		C9.6,76.5,21.1,88,35.3,88c5.5,0,10.6-1.7,14.8-4.7c4.2,3,9.3,4.7,14.8,4.7c14.2,0,25.7-11.5,25.7-25.7C90.4,52,84.4,43.1,75.6,39z
		 M50,14.1c13,0,23.7,10.6,23.7,23.7c0,0.1,0,0.3,0,0.4c-2.8-1-5.8-1.6-8.9-1.6c-5.5,0-10.6,1.7-14.8,4.7c-4.2-3-9.3-4.7-14.8-4.7
		c-3.1,0-6.1,0.6-8.9,1.6c0-0.1,0-0.3,0-0.4C26.3,24.7,37,14.1,50,14.1z M50,43.8c4.8,3.8,8.1,9.5,8.7,15.9C56,60.8,53,61.4,50,61.4
		s-6-0.6-8.7-1.7C41.9,53.3,45.2,47.6,50,43.8z M39.3,58.9c-7-3.5-12-10.4-12.9-18.6c2.7-1.1,5.7-1.7,8.7-1.7c4.8,0,9.4,1.5,13.1,4
		C43.5,46.6,40.2,52.3,39.3,58.9z M51.7,42.6c3.8-2.5,8.3-4,13.1-4c3.1,0,6,0.6,8.7,1.7c-0.9,8.1-5.9,15-12.9,18.6
		C59.8,52.3,56.5,46.6,51.7,42.6z M35.2,85.9c-13,0-23.7-10.6-23.7-23.7c0-9.2,5.3-17.2,13-21.1c1.2,8.8,6.8,16.2,14.6,19.8
		c0,0.4,0,0.8,0,1.3c0,7.9,3.6,15,9.2,19.7C44.6,84.5,40.1,85.9,35.2,85.9z M41.1,62.3c0-0.1,0-0.3,0-0.4c2.8,1,5.8,1.6,8.9,1.6
		s6.1-0.6,8.9-1.6c0,0.1,0,0.3,0,0.4c0,7.5-3.5,14.1-8.9,18.5C44.6,76.4,41.1,69.7,41.1,62.3z M64.8,85.9c-4.8,0-9.4-1.5-13.1-4
		c5.6-4.7,9.2-11.8,9.2-19.7c0-0.4,0-0.9,0-1.3c7.8-3.6,13.4-11,14.6-19.8c7.7,3.9,13,11.9,13,21.1C88.4,75.3,77.8,85.9,64.8,85.9z"
		/>
</g>
</svg>
