<?xml version="1.0" encoding="utf-8"?>
<!-- Generator: Adobe Illustrator 21.1.0, SVG Export Plug-In . SVG Version: 6.00 Build 0)  -->
<svg version="1.1" id="Calque_1" xmlns="http://www.w3.org/2000/svg" xmlns:xlink="http://www.w3.org/1999/xlink" x="0px" y="0px"
	 viewBox="0 0 100 125" style="enable-background:new 0 0 100 125;" xml:space="preserve">
<path d="M10.8,48c0.2,0.1,0.3,0.1,0.5,0.1c0.3,0,0.7-0.2,0.9-0.5l2.9-5v42.7c0,0.6,0.4,1,1,1h67.7c0.6,0,1-0.4,1-1v-42l2.3,4.3
	c0.2,0.3,0.5,0.5,0.9,0.5c0.2,0,0.3,0,0.5-0.1c0.5-0.3,0.7-0.9,0.4-1.4l-4.2-7.8l0,0l0,0l-10-17.6c-0.1-0.2-0.3-0.3-0.5-0.4
	l-23.8-11c-0.3-0.1-0.6-0.1-0.8,0l-23.8,11c-0.2,0.1-0.3,0.2-0.4,0.4l-10,17.3l0,0l-4.8,8.2C10.2,47.1,10.4,47.7,10.8,48z M51,62.9
	l4.5,9L51,80.5V62.9z M49,80.6l-4.6-8.7l4.6-9V80.6z M48.7,84.3H37.9L43.2,74L48.7,84.3z M56.6,74l5.1,10.2H51.3L56.6,74z
	 M62.7,81.7l-4.9-9.9l4.9-9.6V81.7z M56.6,69.6l-4.9-9.8h10L56.6,69.6z M43.2,69.7L38,59.8h10.4L43.2,69.7z M42.1,71.9l-4.8,9.3
	V62.8L42.1,71.9z M64.7,84.3V58.8c0-0.6-0.4-1-1-1H36.3l0,0c-0.1,0-0.1,0-0.2,0c-0.1,0-0.1,0-0.2,0.1l0,0L35.8,58
	c-0.1,0-0.1,0.1-0.2,0.1c0,0-0.1,0.1-0.1,0.2c0,0.1-0.1,0.1-0.1,0.2c0,0.1,0,0.1,0,0.2v0.1v25.5H17.1v-34h65.7v34
	C82.8,84.3,64.7,84.3,64.7,84.3z M26.8,22.5L50,11.8l23.1,10.7l9.7,17.1v8.7H17.1v-9.1L26.8,22.5z"/>
<path d="M35.3,38.3v1c0,0.6,0.4,1,1,1h27.4c0.6,0,1-0.4,1-1V26.8c0-0.6-0.4-1-1-1H36.3c-0.6,0-1,0.4-1,1V38.3L35.3,38.3z M37.3,28.7
	l9.9,4.1l-9.9,4C37.3,36.8,37.3,28.7,37.3,28.7z M62.7,37.1l-10.2-4.2l10.2-4.1V37.1z M60.4,38.3H39l10.9-4.4L60.4,38.3z M49.9,31.7
	l-9.5-4h19.4L49.9,31.7z"/>
</svg>
