<?xml version="1.0" encoding="utf-8"?>
<!-- Generator: Adobe Illustrator 21.1.0, SVG Export Plug-In . SVG Version: 6.00 Build 0)  -->
<svg version="1.1" id="Calque_1" xmlns="http://www.w3.org/2000/svg" xmlns:xlink="http://www.w3.org/1999/xlink" x="0px" y="0px"
	 viewBox="0 0 100 125" style="enable-background:new 0 0 100 125;" xml:space="preserve">
<path d="M75.8,33.1c-0.4-0.4-1-0.4-1.4,0l-2.7,2.7c-0.4,0.4-0.4,1,0,1.4l0.2,0.2l0,0c-2.1,2.1-2.7,5.2-1.8,7.9L58.6,56.7V36.9h1
	c0.6,0,1-0.4,1-1V31c0-0.6-0.4-1-1-1H55c-0.3-10.1-8.5-18.3-18.7-18.3S17.8,19.9,17.5,30h-4.4c-0.6,0-1,0.4-1,1v4.9c0,0.6,0.4,1,1,1
	H14v47c0,1.8,1.4,3.2,3.2,3.2h38.2c1.8,0,3.2-1.4,3.2-3.2V71.5l18.9-18.9c0.7,0.2,1.5,0.3,2.3,0.3c2,0,3.9-0.7,5.4-2.2l0,0l0.2,0.2
	c0.2,0.2,0.5,0.3,0.7,0.3s0.5-0.1,0.7-0.3l2.7-2.7c0.4-0.4,0.4-1,0-1.4L75.8,33.1z M36.3,13.8c9,0,16.4,7.2,16.7,16.2H19.5
	C19.8,21,27.2,13.8,36.3,13.8z M14.1,32h44.5v2.9h-1H15h-0.8L14.1,32L14.1,32z M56.6,36.9v7.9H16v-7.9H56.6z M55.4,85.1H17.2
	c-0.7,0-1.2-0.5-1.2-1.2V46.8h40.6V84C56.6,84.6,56,85.1,55.4,85.1z M58.6,68.7v-9.2l12.3-12.3c0.3,0.4,0.5,0.7,0.9,1.1l2.5,2.5
	c0.4,0.4,0.8,0.7,1.2,1L58.6,68.7z M83.7,49.4c-2.2,2.2-5.8,2.2-8,0l-2.5-2.5c-2.2-2.2-2.2-5.8,0-8l0,0L83.7,49.4L83.7,49.4z
	 M86,48.8L73.7,36.6l1.3-1.3l12.3,12.3L86,48.8z"/>
<path d="M20.2,53.2c-0.6,0-1,0.4-1,1v24.9c0,0.6,0.4,1,1,1s1-0.4,1-1V54.2C21.2,53.7,20.7,53.2,20.2,53.2z"/>
</svg>
